<svg height="512" viewBox="0 0 58 58" width="512" xmlns="http://www.w3.org/2000/svg"><g id="Page-1" fill="none" fill-rule="evenodd"><g id="040---Measuring-Area" fill="rgb(0,0,0)" fill-rule="nonzero"><path id="Shape" d="m52.649 55.971-50.62-50.62c-.33966981-.34044546-.85108439-.44252449-1.2954254-.25856863-.44434102.18395587-.7339453.61765434-.7335746 1.09856863v6.809h3c.55228475 0 1 .4477153 1 1s-.44771525 1-1 1h-3v4h3c.55228475 0 1 .4477153 1 1s-.44771525 1-1 1h-3v4h3c.55228475 0 1 .4477153 1 1s-.44771525 1-1 1h-3v4h3c.55228475 0 1 .4477153 1 1s-.44771525 1-1 1h-3v4h3c.55228475 0 1 .4477153 1 1s-.44771525 1-1 1h-3v4h3c.55228475 0 1 .4477153 1 1s-.44771525 1-1 1h-3v4h3c.55228475 0 1 .4477153 1 1s-.44771525 1-1 1h-3v5.811c0 .6566666.53233343 1.189 1.189 1.189h5.811v-3c0-.5522847.44771525-1 1-1s1 .4477153 1 1v3h4v-3c0-.5522847.4477153-1 1-1s1 .4477153 1 1v3h4v-3c0-.5522847.4477153-1 1-1s1 .4477153 1 1v3h4v-3c0-.5522847.4477153-1 1-1s1 .4477153 1 1v3h4v-3c0-.5522847.4477153-1 1-1s1 .4477153 1 1v3h4v-3c0-.5522847.4477153-1 1-1s1 .4477153 1 1v3h4v-3c0-.5522847.4477153-1 1-1s1 .4477153 1 1v3h6.809c.4809143.0003707.9146128-.2892336 1.0985686-.7335746.1839559-.444341.0818769-.9557556-.2585686-1.2954254zm-42.649-7.971v-20.537l20.536 20.537z"/><path id="Shape" d="m50.868 47.546 5.1 5.1c.3389957.3422125.8510794.4458544 1.2964671.262395.4453876-.1834594.7359114-.6177028.7355329-1.099395l.0000004-11.395z"/><path id="Shape" d="m58 37.586v-10.172l-13.632 13.632 5.086 5.086z"/><path id="Shape" d="m29.954 26.632 26.632-26.632h-10.172l-21.546 21.546z"/><path id="Shape" d="m37.868 34.546 5.086 5.086 15.046-15.046v-10.172z"/><path id="Shape" d="m36.454 33.132 21.546-21.546v-10.171l-26.632 26.631z"/><path id="Shape" d="m17.586-.00000036-11.395.00000036c-.48091429-.0003707-.91461276.28923358-1.09856863.7335746-.18395586.44434101-.08187683.95575559.25856863 1.2954254l5.1 5.1z"/><path id="Shape" d="m16.954 13.632 13.632-13.632h-10.172l-8.546 8.546z"/><path id="Shape" d="m23.454 20.132 20.132-20.132h-10.172l-15.046 15.046z"/></g></g></svg>